<svg width="2793" height="430" viewBox="0 0 2793 430" fill="none" xmlns="http://www.w3.org/2000/svg">
<g clip-path="url(#clip0_1004_18)">
<path d="M62.209 175.207L123.732 308.752L185.012 175.207H246.779L123.244 429.357L0.685547 175.207H62.209Z" fill="#F5F5F5"/>
<path d="M491.896 307.043H321.486C322.951 326.574 329.299 342.118 340.529 353.674C351.76 365.067 366.164 370.764 383.742 370.764C397.414 370.764 408.726 367.508 417.678 360.998C426.467 354.488 436.477 342.443 447.707 324.865L494.094 350.744C486.932 362.951 479.364 373.449 471.389 382.238C463.413 390.865 454.868 398.026 445.754 403.723C436.639 409.257 426.792 413.326 416.213 415.93C405.633 418.534 394.159 419.836 381.789 419.836C346.307 419.836 317.824 408.443 296.34 385.656C274.855 362.707 264.113 332.271 264.113 294.348C264.113 256.75 274.53 226.314 295.363 203.039C316.359 180.09 344.191 168.615 378.859 168.615C413.853 168.615 441.522 179.764 461.867 202.062C482.049 224.198 492.141 254.878 492.141 294.104L491.896 307.043ZM435.5 262.121C427.85 232.824 409.377 218.176 380.08 218.176C373.407 218.176 367.141 219.234 361.281 221.35C355.422 223.303 350.051 226.232 345.168 230.139C340.448 233.882 336.379 238.439 332.961 243.811C329.543 249.182 326.939 255.285 325.148 262.121H435.5Z" fill="#F5F5F5"/>
<path d="M552.199 175.207H607.131V196.447C617.222 185.868 626.174 178.625 633.986 174.719C641.962 170.65 651.402 168.615 662.307 168.615C676.792 168.615 691.929 173.335 707.717 182.775L682.57 233.068C672.154 225.581 661.981 221.838 652.053 221.838C622.105 221.838 607.131 244.462 607.131 289.709V413H552.199V175.207Z" fill="#F5F5F5"/>
<path d="M877.395 215.734L831.984 239.904C824.823 225.256 815.952 217.932 805.373 217.932C800.327 217.932 796.014 219.641 792.434 223.059C788.853 226.314 787.062 230.546 787.062 235.754C787.062 244.868 797.642 253.902 818.801 262.854C847.935 275.386 867.548 286.942 877.639 297.521C887.73 308.101 892.775 322.342 892.775 340.246C892.775 363.195 884.312 382.401 867.385 397.863C850.946 412.512 831.089 419.836 807.814 419.836C767.938 419.836 739.699 400.386 723.098 361.486L769.973 339.758C776.483 351.151 781.447 358.394 784.865 361.486C791.538 367.671 799.514 370.764 808.791 370.764C827.346 370.764 836.623 362.3 836.623 345.373C836.623 335.607 829.462 326.493 815.139 318.029C809.605 315.262 804.071 312.577 798.537 309.973C793.003 307.368 787.388 304.683 781.691 301.916C765.741 294.104 754.51 286.291 748 278.479C739.699 268.55 735.549 255.773 735.549 240.148C735.549 219.478 742.629 202.388 756.789 188.879C771.275 175.37 788.853 168.615 809.523 168.615C839.96 168.615 862.583 184.322 877.395 215.734Z" fill="#F5F5F5"/>
<path d="M997.268 175.207V413H942.336V175.207H997.268ZM934.035 76.3301C934.035 66.7272 937.535 58.4264 944.533 51.4277C951.532 44.429 959.914 40.9297 969.68 40.9297C979.608 40.9297 988.072 44.429 995.07 51.4277C1002.07 58.2637 1005.57 66.6458 1005.57 76.5742C1005.57 86.5026 1002.07 94.9661 995.07 101.965C988.234 108.964 979.852 112.463 969.924 112.463C959.995 112.463 951.532 108.964 944.533 101.965C937.535 94.9661 934.035 86.4212 934.035 76.3301Z" fill="#F5F5F5"/>
<path d="M1055.62 292.395C1055.62 258.052 1067.91 228.837 1092.48 204.748C1117.06 180.66 1147.01 168.615 1182.33 168.615C1217.81 168.615 1247.92 180.741 1272.66 204.992C1297.07 229.243 1309.28 259.029 1309.28 294.348C1309.28 329.992 1296.99 359.859 1272.41 383.947C1247.67 407.873 1217.32 419.836 1181.35 419.836C1145.71 419.836 1115.84 407.629 1091.75 383.215C1067.66 359.126 1055.62 328.853 1055.62 292.395ZM1111.77 293.371C1111.77 317.134 1118.12 335.933 1130.81 349.768C1143.83 363.765 1161 370.764 1182.33 370.764C1203.81 370.764 1220.98 363.846 1233.84 350.012C1246.7 336.177 1253.13 317.704 1253.13 294.592C1253.13 271.48 1246.7 253.007 1233.84 239.172C1220.82 225.174 1203.65 218.176 1182.33 218.176C1161.33 218.176 1144.32 225.174 1131.3 239.172C1118.28 253.169 1111.77 271.236 1111.77 293.371Z" fill="#F5F5F5"/>
<path d="M1367.63 175.207H1422.8V197.18C1442.01 178.137 1463.66 168.615 1487.75 168.615C1515.42 168.615 1536.98 177.323 1552.44 194.738C1565.79 209.549 1572.46 233.719 1572.46 267.248V413H1517.29V280.188C1517.29 256.75 1514.03 240.555 1507.52 231.604C1501.17 222.489 1489.62 217.932 1472.85 217.932C1454.62 217.932 1441.68 223.954 1434.04 235.998C1426.55 247.88 1422.8 268.632 1422.8 298.254V413H1367.63V175.207Z" fill="#F5F5F5"/>
<path d="M1851.27 0.646484V413H1796.34V0.646484H1851.27Z" fill="#F5F5F5"/>
<path d="M2137.4 307.043H1966.99C1968.46 326.574 1974.81 342.118 1986.04 353.674C1997.27 365.067 2011.67 370.764 2029.25 370.764C2042.92 370.764 2054.23 367.508 2063.19 360.998C2071.97 354.488 2081.98 342.443 2093.21 324.865L2139.6 350.744C2132.44 362.951 2124.87 373.449 2116.9 382.238C2108.92 390.865 2100.38 398.026 2091.26 403.723C2082.15 409.257 2072.3 413.326 2061.72 415.93C2051.14 418.534 2039.67 419.836 2027.3 419.836C1991.82 419.836 1963.33 408.443 1941.85 385.656C1920.36 362.707 1909.62 332.271 1909.62 294.348C1909.62 256.75 1920.04 226.314 1940.87 203.039C1961.87 180.09 1989.7 168.615 2024.37 168.615C2059.36 168.615 2087.03 179.764 2107.38 202.062C2127.56 224.198 2137.65 254.878 2137.65 294.104L2137.4 307.043ZM2081.01 262.121C2073.36 232.824 2054.88 218.176 2025.59 218.176C2018.91 218.176 2012.65 219.234 2006.79 221.35C2000.93 223.303 1995.56 226.232 1990.68 230.139C1985.96 233.882 1981.89 238.439 1978.47 243.811C1975.05 249.182 1972.45 255.285 1970.66 262.121H2081.01Z" fill="#F5F5F5"/>
<path d="M2197.71 175.207H2252.88V197.18C2272.09 178.137 2293.74 168.615 2317.82 168.615C2345.49 168.615 2367.06 177.323 2382.52 194.738C2395.87 209.549 2402.54 233.719 2402.54 267.248V413H2347.37V280.188C2347.37 256.75 2344.11 240.555 2337.6 231.604C2331.25 222.489 2319.7 217.932 2302.93 217.932C2284.7 217.932 2271.76 223.954 2264.11 235.998C2256.63 247.88 2252.88 268.632 2252.88 298.254V413H2197.71V175.207Z" fill="#F5F5F5"/>
<path d="M2610.3 215.734L2564.89 239.904C2557.73 225.256 2548.86 217.932 2538.28 217.932C2533.24 217.932 2528.92 219.641 2525.34 223.059C2521.76 226.314 2519.97 230.546 2519.97 235.754C2519.97 244.868 2530.55 253.902 2551.71 262.854C2580.85 275.386 2600.46 286.942 2610.55 297.521C2620.64 308.101 2625.69 322.342 2625.69 340.246C2625.69 363.195 2617.22 382.401 2600.29 397.863C2583.86 412.512 2564 419.836 2540.72 419.836C2500.85 419.836 2472.61 400.386 2456.01 361.486L2502.88 339.758C2509.39 351.151 2514.36 358.394 2517.78 361.486C2524.45 367.671 2532.42 370.764 2541.7 370.764C2560.26 370.764 2569.53 362.3 2569.53 345.373C2569.53 335.607 2562.37 326.493 2548.05 318.029C2542.51 315.262 2536.98 312.577 2531.45 309.973C2525.91 307.368 2520.3 304.683 2514.6 301.916C2498.65 294.104 2487.42 286.291 2480.91 278.479C2472.61 268.55 2468.46 255.773 2468.46 240.148C2468.46 219.478 2475.54 202.388 2489.7 188.879C2504.18 175.37 2521.76 168.615 2542.43 168.615C2572.87 168.615 2595.49 184.322 2610.3 215.734Z" fill="#F5F5F5"/>
<path d="M2685.64 43.9009L2709.59 95.8869L2733.45 43.9009H2757.49L2709.4 142.836L2661.69 43.9009H2685.64Z" fill="#F5F5F5"/>
<circle cx="2709.5" cy="84.5" r="72.6375" stroke="#F5F5F5" stroke-width="21.7249"/>
</g>
<defs>
<clipPath id="clip0_1004_18">
<rect width="2793" height="430" fill="white"/>
</clipPath>
</defs>
</svg>
